<svg width="28" height="9" viewBox="0 0 28 9" fill="none" xmlns="http://www.w3.org/2000/svg">
<path d="M12.5858 1.92056L9.74904 4.75731C8.36542 6.14093 7.67361 6.83273 6.86628 7.32747C6.1505 7.7661 5.37015 8.08933 4.55386 8.28531C3.63316 8.50635 2.65479 8.50635 0.698068 8.50635H27.3019C25.3452 8.50635 24.3668 8.50635 23.4461 8.28531C22.6299 8.08933 21.8495 7.7661 21.1337 7.32747C20.3264 6.83273 19.6346 6.14093 18.251 4.75731L15.4142 1.92056C14.6332 1.13951 13.3668 1.13951 12.5858 1.92056Z" fill="#383838"/>
<path d="M27.3019 7.50635C25.2976 7.50635 24.4584 7.49992 23.6796 7.31294C22.9653 7.14146 22.2825 6.85863 21.6562 6.47483C20.9733 6.05632 20.3753 5.46748 18.9581 4.05021L16.1213 1.21345C14.9497 0.0418797 13.0503 0.0418835 11.8787 1.21345L9.04193 4.05021C7.62466 5.46748 7.02672 6.05632 6.34378 6.47483C5.71748 6.85863 5.03466 7.14146 4.32041 7.31294C3.54157 7.49992 2.70239 7.50635 0.698068 7.50635H0V8.50635H0.698068C2.65479 8.50635 3.63315 8.50635 4.55386 8.28531C5.37015 8.08933 6.1505 7.7661 6.86628 7.32747C7.67361 6.83274 8.36542 6.14093 9.74904 4.75731L12.5858 1.92056C13.3668 1.13951 14.6332 1.13951 15.4142 1.92056L18.251 4.75731C19.6346 6.14093 20.3264 6.83274 21.1337 7.32747C21.8495 7.7661 22.6299 8.08933 23.4461 8.28531C24.3668 8.50635 25.3452 8.50635 27.3019 8.50635H28V7.50635H27.3019Z" fill="#6B6B6B"/>
</svg>
